<?xml version="1.0" encoding="iso-8859-1"?>
<svg version="1.1" id="Layer_1" xmlns="http://www.w3.org/2000/svg" xmlns:xlink="http://www.w3.org/1999/xlink" x="0px" y="0px"
	 viewBox="0 0 484.162 484.162" style="enable-background:new 0 0 484.162 484.162;" xml:space="preserve">
<g>
	<g>
		<g>
			<polygon points="379.323,124.791 394.323,124.791 394.323,107.335 411.779,107.335 411.779,92.335 394.323,92.335 394.323,74.88 
				379.323,74.88 379.323,92.335 361.868,92.335 361.868,107.335 379.323,107.335 			"/>
			<polygon points="179.679,124.791 194.679,124.791 194.679,107.335 212.135,107.335 212.135,92.335 194.679,92.335 194.679,74.88 
				179.679,74.88 179.679,92.335 162.224,92.335 162.224,107.335 179.679,107.335 			"/>
			<path d="M139.75,67.471c-6.536,9.479-9.982,20.611-9.982,32.364c0,31.656,25.754,57.411,57.411,57.411
				c18.919,0,36.672-9.462,47.338-24.955h104.95c1.483,2.172,3.124,4.259,4.918,6.253v89.375h14.974v34.14h24.955v27.438h15v-27.438
				h24.955v-34.14h14.974V124.791h-0.755c3.765-7.706,5.746-16.266,5.746-24.956c0-31.656-25.755-57.41-57.411-57.41
				c-18.933,0-36.698,9.477-47.341,24.955H234.608V17.495h82.34v-15H57.411v15h82.339V67.471z M409.269,247.059h-34.91v-19.14h34.91
				V247.059z M424.242,212.919h-64.857v-20.736h64.857V212.919z M424.244,177.182L424.244,177.182h-64.858v-26.856
				c8.316,4.51,17.691,6.919,27.438,6.919c13.956,0,27.174-5.083,37.42-13.912V177.182z M350.087,78.643
				c7.706-13.288,21.439-21.219,36.736-21.219c23.386,0,42.411,19.025,42.411,42.41c0,7.215-1.841,14.295-5.323,20.476l-0.032,0.058
				c-7.448,13.495-21.647,21.878-37.056,21.878c-10.201,0-19.845-3.551-27.438-9.994v-0.674h-0.789
				c-0.477-0.426-0.948-0.861-1.408-1.311c-2.791-2.79-5.175-5.891-7.127-9.283c-3.696-6.276-5.65-13.59-5.65-21.149
				C344.411,92.276,346.365,84.963,350.087,78.643z M241.896,82.38h90.21c-1.772,5.577-2.695,11.465-2.695,17.455
				c0,5.995,0.924,11.889,2.691,17.456h-90.206c1.772-5.576,2.694-11.465,2.694-17.456C244.59,93.843,243.668,87.955,241.896,82.38z
				 M154.75,17.495h64.857v35.035c-9.468-6.471-20.777-10.106-32.428-10.106c-11.652,0-22.965,3.637-32.429,10.104V17.495z
				 M153.245,74.396c7.993-10.627,20.679-16.972,33.935-16.972s25.942,6.345,33.929,16.964c1.178,1.57,2.022,2.846,2.739,4.135
				l0.093,0.163c3.697,6.275,5.65,13.588,5.65,21.148s-1.954,14.874-5.65,21.149l-0.026,0.044
				c-7.706,13.286-21.439,21.218-36.735,21.218c-23.385,0-42.411-19.025-42.411-42.411C144.769,90.499,147.693,81.71,153.245,74.396
				z"/>
			<path d="M424.269,371.836v-59.893h-94.857v59.893h-44.893v-59.893h-94.857v59.893h-44.893v-59.893H49.911v59.893H0v82.366
				c0,15.145,12.32,27.465,27.464,27.465h429.233c15.145,0,27.465-12.32,27.465-27.465v-82.366H424.269z M344.412,326.943h64.857
				v44.893h-64.857V326.943z M269.519,326.943v44.893h-64.857v-44.893H269.519z M64.911,326.943h64.857v44.893H64.911V326.943z
				 M469.161,454.202c0.002,6.873-5.59,12.465-12.463,12.465H27.464c-6.873,0-12.464-5.592-12.464-12.465v-32.429h59.867v32.429h15
				v-32.429h64.857v32.429h15v-32.429h64.857v32.429h15v-32.429h64.857v32.429h15v-32.429h64.857v32.429h15v-32.429h59.866V454.202z
				 M469.163,406.773H15v-19.938h454.163V406.773z"/>
			<rect x="272.028" y="436.719" width="19.965" height="15"/>
			<rect x="351.885" y="436.719" width="19.965" height="15"/>
			<rect x="431.743" y="436.719" width="19.965" height="15"/>
			<rect x="192.17" y="436.719" width="19.964" height="15"/>
			<rect x="112.313" y="436.719" width="19.964" height="15"/>
			<rect x="32.456" y="436.719" width="19.964" height="15"/>
		</g>
	</g>
</g>
<g>
</g>
<g>
</g>
<g>
</g>
<g>
</g>
<g>
</g>
<g>
</g>
<g>
</g>
<g>
</g>
<g>
</g>
<g>
</g>
<g>
</g>
<g>
</g>
<g>
</g>
<g>
</g>
<g>
</g>
</svg>
