<?xml version="1.0" ?><svg width="512px" height="512px" viewBox="0 0 512 512" xmlns="http://www.w3.org/2000/svg"><g id="Sustainable_recycling"><path d="M219.1,91.73A8.27,8.27,0,0,0,234,95.34l17.37-23.8A8.27,8.27,0,0,0,249.53,60L225.77,42.57a8.27,8.27,0,0,0-13.06,7.94l2,12.79A201.72,201.72,0,0,0,68.16,334.66l10,22.84H97.86l-13-29.61A183.65,183.65,0,0,1,217.46,81.12Z"/><path d="M454.27,335.67,442.85,331a200.78,200.78,0,0,0,13.37-72.31c0-96.13-68.37-179.31-162.57-197.79l-3.46,17.67c85.77,16.82,148,92.57,148,180.12a182.84,182.84,0,0,1-12,65.47l-10.51-4.31a8.26,8.26,0,0,0-10.76,10.84l11.39,27.18a8.27,8.27,0,0,0,10.81,4.43L454.31,351A8.27,8.27,0,0,0,454.27,335.67Z"/><path d="M343.94,266h-4.78v-15.8a37.7,37.7,0,0,0-14.68-30L296,198.11a3.59,3.59,0,0,1-1.4-2.86v-9.12h11a6.37,6.37,0,0,0,6.37-6.37V141.61a6.37,6.37,0,0,0-6.37-6.37H207.14a6.38,6.38,0,0,0-6.38,6.37v38.15a6.38,6.38,0,0,0,6.38,6.37h11v9.12a3.66,3.66,0,0,1-1.4,2.86l-28.52,22.14a37.7,37.7,0,0,0-14.68,30V266h-4.78a9.43,9.43,0,0,0-9.43,9.43V308a9.43,9.43,0,0,0,2.52,6.42,4.42,4.42,0,0,1,0,6,9.41,9.41,0,0,0-2.52,6.42v29.7a9.29,9.29,0,0,0,9.29,9.3h2.5v61.73A20.8,20.8,0,0,0,191.9,448.4H320.8a20.8,20.8,0,0,0,20.78-20.77V365.9h2.49a9.3,9.3,0,0,0,9.3-9.3V326.9a9.41,9.41,0,0,0-2.52-6.42,4.42,4.42,0,0,1,0-6,9.43,9.43,0,0,0,2.52-6.42V275.46A9.43,9.43,0,0,0,343.94,266ZM188.46,324V308H324.25v16Zm3.09-73.73a19.81,19.81,0,0,1,7.71-15.76l28.52-22.14a21.48,21.48,0,0,0,8.37-17.08v-9.12h40.41v9.12a21.5,21.5,0,0,0,8.36,17.08l28.52,22.14a19.79,19.79,0,0,1,7.72,15.76V266H191.55Zm132,177.4a2.78,2.78,0,0,1-2.78,2.77H191.9a2.78,2.78,0,0,1-2.77-2.77V365.9H323.58Z"/></g></svg>